<svg height='200' width='200'  fill="#000000" xmlns="http://www.w3.org/2000/svg" xmlns:xlink="http://www.w3.org/1999/xlink" version="1.1" x="0px" y="0px" viewBox="0 0 24 24" style="enable-background:new 0 0 24 24;" xml:space="preserve"><path d="M12,7.9c-2.261,0-4.1,1.839-4.1,4.1s1.839,4.1,4.1,4.1s4.1-1.839,4.1-4.1S14.261,7.9,12,7.9z M12,14.9  c-1.599,0-2.9-1.301-2.9-2.9s1.302-2.9,2.9-2.9s2.9,1.301,2.9,2.9S13.599,14.9,12,14.9z M21.25,9.269h-0.941  c-0.075,0-0.124-0.064-0.145-0.125c-0.105-0.308-0.229-0.607-0.37-0.896c-0.027-0.056-0.04-0.14,0.013-0.193l0.662-0.658  c0.256-0.254,0.397-0.593,0.398-0.954c0.001-0.362-0.139-0.702-0.396-0.959l-1.957-1.958c-0.255-0.254-0.594-0.395-0.954-0.395  c-0.001,0-0.001,0-0.002,0c-0.361,0-0.7,0.142-0.956,0.398l-0.657,0.662c-0.054,0.054-0.135,0.043-0.193,0.014  c-0.29-0.142-0.59-0.266-0.896-0.371c-0.058-0.02-0.125-0.069-0.125-0.145V2.75c0-0.745-0.605-1.35-1.35-1.35h-2.762  c-0.744,0-1.35,0.605-1.35,1.35v0.941c0,0.075-0.067,0.125-0.124,0.145C8.838,3.941,8.538,4.064,8.249,4.207  C8.188,4.235,8.106,4.245,8.056,4.193L7.397,3.531C7.142,3.275,6.803,3.133,6.441,3.133c-0.001,0-0.001,0-0.002,0  c-0.36,0-0.699,0.14-0.954,0.395L3.527,5.486C3.271,5.742,3.132,6.082,3.133,6.444c0.001,0.361,0.143,0.7,0.398,0.953l0.661,0.658  c0.054,0.053,0.041,0.137,0.014,0.193c-0.142,0.289-0.265,0.588-0.37,0.897c-0.021,0.06-0.069,0.124-0.145,0.124H2.75  c-0.744,0-1.35,0.605-1.35,1.35v2.762c0,0.745,0.605,1.35,1.35,1.35h0.941c0.075,0,0.124,0.064,0.145,0.125  c0.105,0.308,0.229,0.607,0.37,0.896c0.027,0.056,0.04,0.14-0.013,0.193l-0.662,0.658c-0.256,0.254-0.397,0.593-0.398,0.954  c-0.001,0.362,0.139,0.702,0.396,0.959l1.957,1.958c0.255,0.254,0.594,0.395,0.954,0.395c0.001,0,0.001,0,0.002,0  c0.361,0,0.7-0.142,0.956-0.398l0.657-0.662c0.055-0.054,0.137-0.042,0.193-0.014c0.29,0.142,0.59,0.266,0.896,0.371  c0.058,0.02,0.125,0.069,0.125,0.145v0.941c0,0.745,0.605,1.35,1.35,1.35h2.762c0.744,0,1.35-0.605,1.35-1.35v-0.941  c0-0.075,0.067-0.125,0.124-0.145c0.308-0.105,0.607-0.229,0.896-0.371c0.06-0.03,0.142-0.04,0.193,0.013l0.658,0.663  c0.256,0.256,0.595,0.397,0.956,0.398c0.001,0,0.001,0,0.002,0c0.36,0,0.699-0.14,0.954-0.395l1.958-1.958  c0.256-0.256,0.396-0.596,0.395-0.958c-0.001-0.361-0.143-0.7-0.398-0.953l-0.661-0.658c-0.054-0.053-0.041-0.137-0.014-0.193  c0.142-0.289,0.265-0.588,0.37-0.896c0,0,0,0,0-0.001c0.021-0.06,0.069-0.124,0.145-0.124h0.941c0.744,0,1.35-0.605,1.35-1.35  v-2.762C22.6,9.875,21.994,9.269,21.25,9.269z M21.4,13.381c0,0.083-0.067,0.15-0.15,0.15h-0.941c-0.573,0-1.088,0.375-1.279,0.935  c-0.09,0.26-0.193,0.514-0.313,0.758c-0.262,0.534-0.163,1.166,0.245,1.572l0.662,0.659c0.036,0.036,0.044,0.077,0.044,0.105  c0,0.029-0.007,0.071-0.043,0.107l-1.957,1.957c-0.036,0.037-0.078,0.044-0.106,0.044s-0.07-0.008-0.106-0.044l-0.659-0.663  c-0.405-0.409-1.037-0.505-1.572-0.244c-0.243,0.12-0.496,0.224-0.756,0.312c-0.56,0.191-0.936,0.706-0.936,1.28v0.941  c0,0.083-0.067,0.15-0.15,0.15h-2.762c-0.083,0-0.15-0.067-0.15-0.15v-0.941c0-0.574-0.376-1.089-0.937-1.28  c-0.259-0.088-0.512-0.192-0.756-0.312c-0.199-0.098-0.412-0.146-0.622-0.146c-0.352,0-0.695,0.134-0.95,0.39l-0.658,0.662  c-0.036,0.037-0.078,0.045-0.106,0.045s-0.07-0.008-0.106-0.044l-1.956-1.956C4.34,17.63,4.333,17.588,4.333,17.56  c0-0.028,0.008-0.069,0.044-0.106l0.663-0.658c0.407-0.406,0.506-1.038,0.244-1.572c-0.12-0.245-0.224-0.499-0.313-0.757  c-0.191-0.56-0.705-0.936-1.279-0.936H2.75c-0.083,0-0.15-0.067-0.15-0.15v-2.762c0-0.083,0.067-0.15,0.15-0.15h0.941  c0.574,0,1.088-0.376,1.279-0.935c0.09-0.26,0.193-0.514,0.313-0.758c0.262-0.534,0.163-1.166-0.245-1.572L4.377,6.546  C4.341,6.51,4.333,6.469,4.333,6.44c0-0.029,0.007-0.071,0.043-0.107l1.957-1.957C6.369,4.34,6.411,4.333,6.439,4.333  S6.51,4.34,6.546,4.377L7.205,5.04c0.406,0.409,1.036,0.505,1.572,0.244c0.243-0.12,0.496-0.224,0.756-0.312  c0.56-0.191,0.936-0.706,0.936-1.28V2.75c0-0.083,0.067-0.15,0.15-0.15h2.762c0.083,0,0.15,0.067,0.15,0.15v0.941  c0,0.574,0.376,1.089,0.937,1.28c0.259,0.088,0.512,0.192,0.756,0.312c0.533,0.263,1.165,0.164,1.572-0.245l0.658-0.662  c0.036-0.037,0.078-0.045,0.106-0.045s0.07,0.008,0.106,0.044l1.956,1.956c0.037,0.037,0.044,0.079,0.044,0.108  c0,0.028-0.008,0.069-0.044,0.106L18.96,7.205c-0.407,0.406-0.506,1.038-0.244,1.572c0.12,0.245,0.224,0.499,0.313,0.757  c0.191,0.56,0.705,0.936,1.279,0.936h0.941c0.083,0,0.15,0.067,0.15,0.15V13.381z"></path></svg>