<?xml version="2.0" encoding="UTF-8"?>
<svg width="98.17mm" height="72.56mm" version="1.1" viewBox="0 0 98.17 72.56" xmlns="http://www.w3.org/2000/svg">
 <g transform="translate(-59.49 -142)">
  <g transform="translate(20.03 22.3)" stroke-width=".08467">
   <path d="m62.4 171.4-4.741-4.762 9.525 9.482v0.0429h-0.0429zm42.12-0.635-5.376-5.398 10.8 10.75v0.0428h-0.0428zm-29.08-2.984 1.437-1.439h0.08466l-2.875 2.879h-0.08466zm-6.858-6.858 1.437-1.439h0.08466l-2.875 2.879h-0.08466zm39.33-0.4868-1.904-1.926 3.852 3.808 2.244-2.199-2.199 2.244h-0.0886zm-21.76-3.366 1.48-1.482h0.08466l-2.96 2.963h-0.08466zm0.7194-3.958-5.418-5.44 10.88 10.84v0.0428h-0.04283zm43.1 2.9 1.183-1.185h0.0846l-2.366 2.371h-0.0846zm-50.67-5.8 1.48-1.482h0.08466l-2.96 2.963h-0.08466zm17.91-0.4868-1.947-1.968 3.937 3.893v0.0438h-0.04372zm-43.22-0.5503-0.8027-0.8255 1.651 1.605v0.0456h-0.04568zm-0.464-15.77 13.72-13.72h0.08466l-27.43 27.43h-0.08466zm6.816 6.9 6.815-6.816h0.08466l-13.63 13.63h-0.08466zm56.22-0.0212-6.815-6.837 13.67 13.63v0.0428h-0.0428zm7.281-6.435-7.239-7.26 14.52 14.48v0.0428h-0.0427zm-55.2 1.016-1.396-1.418 2.836 2.792v0.0442h-0.04426zm39.67-0.0212 1.353-1.355h0.0846l-2.705 2.709h-0.0846zm-32.81-6.837-1.396-1.418 2.836 2.792v0.0442h-0.04426zm29.42-3.492 4.825-4.826h0.0846l-9.651 9.652h-0.0846z" fill="#7d7d80"/>
   <path d="m85.03 188.8-3.45-3.451 6.901-6.9 6.9 6.901-6.901 6.9zm-7.789-7.874-3.45-3.451 6.901-6.9 6.9 6.901-6.901 6.9zm15.58 0-3.45-3.451 6.901-6.9 6.9 6.901-6.901 6.9zm-18.56-19-14.22-14.22 17.6-17.6 3.187 3.174 7.47 7.588-6.846 6.847-3.812-3.81-3.796 3.799 7.421 7.549 7.225 7.098 2.994-2.994 6.9 6.9-9.906 9.895zm28.38-6.827-3.365-3.366v-0.1672l3.895-3.897-3.854-3.851-3.977 3.98-6.902-6.9 10.88-10.88 17.55 17.55-0.0912 0.2698-10.6 10.63h-0.1706z" fill="#eb008b"/>
   <path d="m94.93 162.8-3.45-3.451 0.8104-0.7982 6.9 6.901-0.8104 0.7982zm-20.59-0.8013-3.471-3.492 6.985 6.942v0.0431h-0.0431zm6.858-6.858-3.471-3.492 6.985 6.942v0.0431h-0.04311zm3.683-10.84 3.428-3.45-3.808-3.853 3.894 3.852-6.942 6.9z" fill="#b33a78"/>
   <path d="m53.3 162.3-13.84-13.84h13.72l14.02 14.01 3.724-3.799 6.858 6.858-10.54 10.61h-0.1012zm48.3 5.562-8.305-8.272-11.75-11.82 6.766-6.768h0.1684l21.39 21.45 14-14h13.75l-27.68 27.69-0.042-0.01-8.305-8.272zm-20.33-12.65-3.408-3.409 2.965-2.961 6.814 6.814-2.964 2.964zm-27.69-21.72 13.69-13.69 4.161 4.148 5.439 5.557-6.804 6.804-2.754-2.751h-0.1679l-13.63 13.63h-13.63zm63.06 6.879-6.815-6.816h-0.1678l-2.67 2.666-6.815-6.815 9.589-9.589 27.36 27.37h-13.67z" fill="#555458"/>
  </g>
 </g>
</svg>
